<?xml version="1.0" standalone="no"?>
<!DOCTYPE svg PUBLIC "-//W3C//DTD SVG 20010904//EN"
 "http://www.w3.org/TR/2001/REC-SVG-20010904/DTD/svg10.dtd">
<svg version="1.0" xmlns="http://www.w3.org/2000/svg"
 width="2828.000000pt" height="1076.000000pt" viewBox="0 0 2828.000000 1076.000000"
 preserveAspectRatio="xMidYMid meet">

<g transform="translate(0.000000,1076.000000) scale(0.100000,-0.100000)"
fill="#000000" stroke="none">
<path d="M4897 10190 c-835 -50 -1648 -319 -2352 -778 -285 -186 -522 -379
-770 -627 -448 -448 -794 -962 -1039 -1544 -367 -872 -466 -1864 -280 -2801
82 -414 203 -774 388 -1155 247 -508 536 -916 931 -1310 448 -448 962 -794
1544 -1039 872 -367 1864 -466 2801 -280 414 82 774 203 1155 388 508 247 916
536 1310 931 524 523 912 1143 1150 1836 277 806 335 1674 169 2509 -82 414
-203 774 -388 1155 -247 508 -536 916 -931 1310 -797 797 -1828 1283 -2946
1390 -202 19 -554 26 -742 15z m-1020 -2539 c193 -42 359 -113 524 -222 77
-51 165 -134 494 -460 l400 -398 33 102 c67 207 178 391 336 555 126 130 237
215 385 290 243 125 449 169 731 159 288 -11 513 -84 761 -248 80 -53 173
-141 626 -592 605 -603 587 -581 587 -732 0 -105 -33 -182 -110 -255 -78 -74
-129 -94 -239 -95 -159 0 -134 -20 -720 564 -553 551 -563 560 -730 618 -74
25 -92 27 -235 28 -145 0 -160 -2 -235 -28 -118 -42 -209 -100 -300 -191 -91
-92 -136 -163 -176 -277 -82 -231 -49 -476 94 -689 16 -25 256 -272 532 -550
567 -570 548 -547 549 -695 0 -105 -33 -182 -110 -255 -79 -75 -129 -95 -239
-95 -165 0 -35 -116 -1500 1344 -978 975 -1314 1305 -1357 1330 -130 75 -257
111 -401 111 -120 0 -213 -22 -337 -82 -92 -44 -115 -61 -196 -142 -78 -78
-98 -106 -137 -186 -97 -200 -110 -403 -37 -602 56 -154 69 -169 615 -718 484
-487 514 -518 535 -575 53 -139 20 -285 -86 -385 -81 -76 -129 -95 -244 -95
-154 0 -130 -19 -708 558 -334 333 -528 534 -576 597 -263 347 -355 806 -247
1234 70 277 199 496 413 701 235 226 486 345 843 399 77 11 372 -3 462 -23z
m-172 -1111 c43 -18 240 -211 1340 -1309 710 -709 1311 -1303 1338 -1320 72
-49 163 -89 257 -112 111 -28 299 -23 400 11 315 106 512 362 527 686 8 166
-28 307 -114 443 -22 35 -228 250 -538 561 -577 580 -560 558 -560 715 0 77 4
98 27 147 34 73 103 142 176 176 49 23 70 27 147 27 158 0 134 18 716 -564
540 -541 597 -606 692 -790 107 -206 154 -387 164 -621 6 -163 -5 -272 -43
-424 -114 -455 -471 -850 -914 -1011 -201 -73 -485 -104 -693 -76 -250 34
-483 129 -693 284 -38 28 -241 222 -451 431 -211 209 -384 378 -386 375 -1 -2
-13 -38 -26 -79 -136 -439 -489 -800 -924 -945 -161 -53 -237 -66 -423 -72
-128 -4 -195 -2 -270 10 -261 42 -497 147 -699 310 -44 36 -301 287 -571 559
-382 384 -496 504 -515 543 -20 42 -24 65 -24 150 0 90 3 105 28 153 38 72
106 138 175 170 47 22 71 26 142 27 152 0 126 20 700 -550 278 -276 527 -517
553 -534 129 -88 275 -131 438 -131 127 0 206 18 324 75 197 95 330 251 397
465 19 63 23 96 23 210 0 155 -17 227 -88 365 -39 76 -66 106 -553 595 -576
578 -564 563 -572 710 -5 88 18 161 72 232 96 125 275 171 421 108z"/>
<path d="M13163 7325 c-577 -87 -983 -409 -1110 -880 -25 -92 -27 -115 -27
-300 -1 -226 10 -294 71 -450 55 -137 108 -219 213 -326 145 -147 307 -245
529 -319 52 -18 281 -74 510 -125 229 -52 441 -102 471 -113 208 -73 315 -192
342 -382 39 -280 -117 -495 -427 -585 -267 -77 -625 -47 -820 70 -147 88 -233
228 -248 400 l-2 30 -354 3 -353 2 7 -77 c25 -283 129 -514 315 -703 261 -265
640 -400 1120 -400 801 0 1355 393 1457 1034 23 148 14 377 -21 510 -79 302
-258 508 -570 657 -142 67 -277 105 -706 198 -206 45 -404 91 -440 102 -222
70 -348 190 -385 366 -28 133 -16 245 40 360 75 152 220 251 439 300 111 24
349 22 449 -5 242 -66 395 -224 429 -444 l13 -78 352 0 352 0 -5 53 c-30 311
-125 542 -303 730 -171 181 -398 299 -687 358 -139 28 -505 36 -651 14z"/>
<path d="M24363 7326 c-300 -57 -503 -204 -623 -451 -86 -176 -108 -302 -117
-647 l-6 -258 -191 -2 -191 -3 -3 -282 -2 -283 195 0 195 0 0 -1080 0 -1080
335 0 335 0 0 1080 0 1080 325 0 325 0 0 285 0 285 -326 0 -326 0 4 243 c4
218 6 248 26 301 30 81 58 121 117 161 76 53 142 65 342 65 l173 0 0 289 0
289 -32 6 c-71 15 -481 16 -555 2z"/>
<path d="M22337 7301 c-109 -36 -191 -107 -241 -211 -29 -60 -31 -73 -31 -170
0 -97 2 -110 32 -173 119 -250 452 -313 647 -121 91 91 132 195 123 319 -10
148 -93 272 -224 337 -57 28 -78 33 -157 35 -69 2 -105 -2 -149 -16z"/>
<path d="M15670 6390 l0 -420 -262 -2 -263 -3 0 -280 0 -280 263 -3 262 -2 0
-1080 0 -1080 335 0 335 0 0 1080 0 1080 265 0 265 0 0 285 0 285 -265 0 -265
0 0 420 0 420 -335 0 -335 0 0 -420z"/>
<path d="M20510 6390 l0 -420 -260 0 -260 0 0 -285 0 -285 260 0 260 0 0
-1080 0 -1080 335 0 335 0 0 1080 0 1080 265 0 265 0 0 285 0 285 -265 0 -265
0 0 420 0 420 -335 0 -335 0 0 -420z"/>
<path d="M18305 6044 c-306 -31 -536 -108 -715 -240 -161 -118 -282 -289 -330
-466 -24 -91 -44 -248 -32 -260 4 -4 134 -7 288 -6 l279 3 7 65 c20 182 166
318 392 365 117 24 328 22 429 -4 232 -60 349 -217 351 -471 l1 -85 -290 -22
c-682 -51 -760 -61 -930 -118 -301 -101 -506 -300 -577 -562 -17 -63 -21 -106
-21 -228 0 -179 18 -259 89 -404 39 -78 62 -110 133 -181 100 -101 188 -156
316 -199 471 -157 1051 0 1262 340 20 33 37 59 38 59 1 0 13 -88 25 -195 l23
-195 294 0 293 0 0 896 c0 761 -2 912 -16 1002 -73 496 -382 804 -889 888 -90
14 -345 26 -420 18z m675 -1681 c0 -161 -17 -243 -75 -359 -35 -72 -58 -104
-112 -154 -78 -73 -192 -132 -298 -155 -94 -20 -303 -20 -380 0 -188 49 -277
159 -278 347 0 78 3 93 32 152 51 105 146 168 315 211 99 25 200 37 546 65
124 9 231 18 238 19 9 1 12 -30 12 -126z"/>
<path d="M22137 5963 c-4 -3 -7 -618 -7 -1365 l0 -1358 340 0 340 0 -2 1363
-3 1362 -331 3 c-182 1 -333 -1 -337 -5z"/>
<path d="M25070 5959 c0 -5 245 -646 545 -1422 l546 -1411 -47 -126 c-107
-287 -188 -386 -359 -440 -26 -9 -139 -15 -330 -19 l-290 -6 -3 -274 c-1 -151
1 -278 5 -282 5 -5 62 -18 128 -31 164 -31 521 -33 628 -4 279 75 461 237 619
550 37 73 1388 3444 1388 3463 0 10 -66 13 -341 13 l-340 0 -15 -35 c-8 -19
-172 -459 -365 -977 -320 -861 -367 -983 -369 -968 -1 3 -158 448 -349 990
l-348 985 -351 3 c-247 1 -352 -1 -352 -9z"/>
</g>
</svg>
